<svg width="480" height="280" viewBox="0 0 480 280" fill="none" xmlns="http://www.w3.org/2000/svg">
  <rect width="480" height="280" rx="28" fill="#3256B8"/>
  <circle cx="378" cy="72" r="52" fill="#FFFFFF" opacity="0.08"/>
  <path d="M70 220C130 178 166 170 230 176C290 182 331 159 402 103" stroke="#DCE8FF" stroke-width="8" stroke-linecap="round" opacity="0.55"/>
  <ellipse cx="374" cy="94" rx="44" ry="18" transform="rotate(-18 374 94)" fill="#F8FBFF"/>
  <ellipse cx="374" cy="94" rx="25" ry="9" transform="rotate(-18 374 94)" fill="#9DB8FF"/>
  <circle cx="182" cy="86" r="22" fill="#F8FBFF"/>
  <rect x="168" y="108" width="28" height="72" rx="14" fill="#F8FBFF"/>
  <path d="M182 140L128 186" stroke="#F8FBFF" stroke-width="18" stroke-linecap="round"/>
  <path d="M182 136L246 112" stroke="#F8FBFF" stroke-width="16" stroke-linecap="round"/>
  <path d="M182 180L146 238" stroke="#F8FBFF" stroke-width="18" stroke-linecap="round"/>
  <path d="M182 180L230 232" stroke="#F8FBFF" stroke-width="18" stroke-linecap="round"/>
</svg>
